<?xml version="1.0" standalone="no"?>
<!DOCTYPE svg PUBLIC "-//W3C//DTD SVG 1.1//EN" "http://www.w3.org/Graphics/SVG/1.1/DTD/svg11.dtd" >
<svg xmlns="http://www.w3.org/2000/svg">
<metadata>Generated by IcoMoon</metadata>
<defs>
<font id="icomoon" horiz-adv-x="1024">
<font-face units-per-em="1024" ascent="960" descent="-64" />
<missing-glyph horiz-adv-x="1024" />
<glyph unicode="&#x20;" horiz-adv-x="512" d="" />
<glyph unicode="&#xe900;" glyph-name="banben" horiz-adv-x="901" d="M809.6 409.805c0 205.65-167.204 372.854-372.854 372.854s-372.854-167.204-372.854-372.854 167.204-372.854 372.854-372.854 372.854 167.204 372.854 372.854zM489.764 238.525c-55.347-58.839-124.672-77.486-132.828-33.208-6.41 33.208 26.798 154.383 33.208 199.828 2.33 15.145-16.896 0-16.896 0s-54.18-37.868-66.417-16.896c-1.746 3.497 11.653 13.983 16.896 16.896 0 0 113.019 82.729 149.724 66.417s-12.815-118.267-16.896-133.412c-3.497-15.145-26.798-131.082 50.104-66.417-0.005 0 38.446 25.631-16.896-33.208v0zM461.798 522.245c-32.041 1.746-56.509 29.128-54.764 61.174 1.746 32.041 29.128 57.093 61.174 55.347 32.041-1.746 56.509-29.128 54.764-61.174-1.751-32.63-29.133-57.098-61.174-55.347v0z" />
<glyph unicode="&#xe901;" glyph-name="caiwu" horiz-adv-x="901" d="M144.655 510.085c-49.848 10.368-89.165 25.779-117.955 46.106v-61.722c0-16.712 12.483-32.2 37.407-46.474 24.924-14.269 58.834-25.574 101.647-33.951 42.813-8.335 89.411-12.524 139.745-12.524 20.675 0 40.684 0.748 60.088 2.156 3.144 34.156 13.025 66.35 28.298 95.263-28.406-2.949-57.846-4.475-88.392-4.475-57.364 0.010-110.956 5.212-160.84 15.621zM26.701 355.052c0-16.712 12.483-32.205 37.407-46.474s58.834-25.574 101.647-33.951c42.854-8.335 89.452-12.524 139.786-12.524 29.85 0 58.348 1.51 85.555 4.444-13.788 27.694-22.682 58.235-25.559 90.527-19.538-1.331-39.537-2.022-60.037-2.022-57.37 0-110.961 5.202-160.85 15.611-49.848 10.409-89.165 25.779-117.955 46.106v-61.716zM418.519 223.124c-35.907-4.925-73.544-7.455-113.019-7.455-57.37 0-110.961 5.202-160.85 15.611-49.848 10.409-89.165 25.738-117.955 46.070v-61.722c0-16.712 12.483-32.2 37.407-46.474 24.924-14.269 58.834-25.574 101.647-33.951 42.813-8.335 89.411-12.483 139.745-12.483s96.932 4.188 139.745 12.524c23.060 4.511 43.443 9.902 61.322 16.118-34.493 17.070-64.548 41.713-88.044 71.762zM64.067 587.382c24.924-14.31 58.834-25.615 101.647-33.951 42.854-8.335 89.452-12.483 139.786-12.483 44.447 0 85.965 3.277 124.549 9.779 39.25 43.52 93.286 73.4 154.189 81.818 0.020 0.451 0.061 0.896 0.061 1.352v46.433c0 16.712-12.483 32.2-37.407 46.474-24.924 14.269-58.834 25.574-101.647 33.951-42.813 8.33-89.405 12.518-139.745 12.518-50.335 0-96.932-4.188-139.786-12.524-42.813-8.376-76.723-19.676-101.647-33.951-24.924-14.269-37.407-29.763-37.407-46.474v-46.469c0-16.712 12.483-32.205 37.407-46.474zM619.459 635.023c-140.831 0-255.002-114.166-255.002-255.002s114.166-255.002 255.002-255.002 255.002 114.171 255.002 255.002-114.166 255.002-255.002 255.002zM754.867 375.357h-106.040v-53.837h106.040v-39.153h-106.040v-53.56h-54.651v53.56h-110.126v39.153h110.121v53.837h-110.121v39.153h93.809l-75.658 116.726h58.906c32.246-53.545 52.439-89.196 61.614-106.936h0.814c4.081 9.789 14.679 29.368 31.811 58.732l29.215 48.21h55.675l-76.739-116.726h91.361v-39.158z" />
<glyph unicode="&#xe902;" glyph-name="cangku" horiz-adv-x="901" d="M817.516 569.416l-366.956 289.106-366.956-289.106h-3.866v-531.937h94.566v427.914h552.509v-427.914h94.566v531.937zM221.24 375.552h127.662v-148.424h-127.662v148.424zM386.729 375.552h127.662v-148.424h-127.662v148.424zM552.218 375.552h127.662v-148.424h-127.662v148.424zM221.24 185.902h127.662v-148.424h-127.662v148.424zM386.729 185.902h127.662v-148.424h-127.662v148.424zM552.218 185.902h127.662v-148.424h-127.662v148.424z" />
<glyph unicode="&#xe903;" glyph-name="dingdan" horiz-adv-x="901" d="M607.473 859.034v-166.738h166.042zM567.997 682.875v176.159h-414.966c-14.106-0.097-25.477-11.587-25.426-25.687v-770.683c0-14.152 11.423-25.692 25.426-25.692h595.057c14.106 0.097 25.477 11.587 25.426 25.692v590.853h-176.159c-16.215 0-29.358 13.143-29.358 29.358zM567.997 245.181h-293.596c-16.215 0-29.358 13.143-29.358 29.358s13.143 29.358 29.358 29.358h293.596c16.215 0 29.358-13.143 29.358-29.358s-13.143-29.358-29.358-29.358zM626.719 391.982h-352.317c-16.215 0-29.358 13.143-29.358 29.358s13.143 29.358 29.358 29.358h352.312c16.215 0 29.358-13.143 29.358-29.358 0.005-16.215-13.138-29.358-29.353-29.358zM656.077 568.136c0-16.215-13.143-29.358-29.358-29.358h-352.317c-16.215 0-29.358 13.143-29.358 29.358s13.143 29.358 29.358 29.358h352.312c16.22 0.005 29.363-13.143 29.363-29.358z" />
<glyph unicode="&#xe904;" glyph-name="huiyuan" horiz-adv-x="901" d="M507.684 520.018c-24.991-10.286-47.892-24.003-68.721-41.149-20.823-17.147-38.825-36.746-54.016-58.793-15.186-22.047-26.947-46.177-35.277-72.392-8.33-26.209-12.493-53.77-12.493-82.678 0-25.477 3.308-49.848 9.923-73.124 6.61-23.276 15.8-45.204 27.561-65.777h-19.845c-14.208 0-30.74 0.486-49.608 1.469-18.862 0.983-38.333 2.33-58.424 4.045-20.086 1.71-40.054 3.671-59.894 5.873-19.845 2.207-37.847 4.536-54.016 6.984-16.174 2.447-29.891 4.9-41.155 7.352-11.269 2.442-18.376 4.895-21.309 7.347-5.391 3.922-9.431 16.046-12.129 36.378-2.693 20.337-1.592 46.428 3.308 78.269 1.956 12.252 6.006 22.298 12.124 30.131 6.129 7.839 13.599 14.577 22.42 20.209 8.817 5.637 18.616 10.168 29.399 13.599 10.778 3.43 21.801 6.738 33.070 9.923 11.264 3.185 22.17 6.615 32.696 10.291 10.537 3.671 20.214 8.202 29.030 13.594 10.286 6.369 18.253 12.616 23.885 18.739s9.682 12.124 12.129 18.007c2.452 5.873 3.671 12.001 3.671 18.371s-0.241 13.471-0.737 21.309c-0.978 11.269-4.895 20.209-11.756 26.824s-14.454 13.358-22.784 20.214c-3.922 3.43-7.47 8.207-10.66 14.336-3.185 6.118-6.001 12.365-8.448 18.739-2.452 7.352-4.895 14.94-7.347 22.784-3.43 0.978-6.861 2.693-10.291 5.146-2.939 2.447-6.124 5.878-9.554 10.286-3.43 4.413-6.369 10.783-8.817 19.113-2.447 8.325-3.436 15.918-2.939 22.779 0.492 6.861 1.956 12.989 4.408 18.376 1.966 5.391 5.146 10.537 9.559 15.432 0 18.621 0.978 37.238 2.934 55.854 1.961 15.683 5.391 32.584 10.291 50.708 4.9 18.13 12.493 34.299 22.779 48.507 9.8 13.722 20.332 24.863 31.601 33.439s23.030 15.309 35.277 20.204c12.247 4.905 24.371 8.207 36.378 9.928 12.006 1.715 23.639 2.57 34.903 2.57 14.213 0 28.293-1.592 42.26-4.777 13.962-3.185 27.069-7.47 39.322-12.861s23.148-11.515 32.707-18.376c9.549-6.861 17.024-13.716 22.41-20.577 12.739-15.677 22.047-32.947 27.93-51.809 5.878-18.867 10.051-36.869 12.493-54.021 2.452-19.594 3.676-39.439 3.676-59.525 3.43-2.452 6.124-5.632 8.084-9.554 1.961-3.43 3.553-7.839 4.777-13.23 1.229-5.391 1.352-12.006 0.369-19.845-0.983-10.783-3.067-19.231-6.246-25.354-3.19-6.124-6.738-10.9-10.66-14.331-4.408-3.917-9.062-6.615-13.962-8.084-0.978-2.939-1.961-6.129-2.939-9.549l-3.676-10.296c-0.978-3.425-2.207-7.101-3.671-11.023v0 0zM612.772 496.507c31.852 0 61.855-6.129 90.030-18.376 28.17-12.252 52.675-28.908 73.492-49.976 20.823-21.069 37.366-45.686 49.608-73.856 12.252-28.175 18.376-58.179 18.376-90.030 0-31.846-6.118-61.855-18.376-90.025-12.247-28.17-28.78-52.787-49.608-73.856-20.818-21.074-45.317-37.612-73.492-49.613-28.17-12.006-58.179-18.002-90.030-18.002-32.333 0-62.592 6.001-90.762 18.002-28.17 12.006-52.669 28.539-73.492 49.613-20.823 21.069-37.356 45.686-49.608 73.856s-18.376 58.179-18.376 90.025c0 31.852 6.124 61.855 18.376 90.030 12.247 28.17 28.785 52.787 49.608 73.856 20.823 21.064 45.322 37.724 73.492 49.976 28.17 12.247 58.424 18.376 90.762 18.376v0 0zM747.996 309.832c2.944 9.795 1.592 18.739-4.040 26.829-5.632 8.084-13.102 13.839-22.415 17.27-9.308 3.425-18.616 3.671-27.93 0.732-9.308-2.944-16.164-10.537-20.572-22.784-2.452-8.33-4.777-16.046-6.984-23.158-2.202-7.101-4.413-14.572-6.615-22.41-2.202-7.844-4.895-16.287-8.084-25.359-3.185-9.062-7.224-19.476-12.129-31.232-4.895-12.733-11.884-18.739-20.946-18.002s-16.046 5.996-20.946 15.8c-5.391 9.8-10.414 20.332-15.063 31.601-4.659 11.269-9.19 22.303-13.599 33.070-4.413 10.783-8.33 20.588-11.761 29.399-3.425 8.822-6.369 15.928-8.822 21.32-3.917 7.834-10.409 12.242-19.471 13.22s-17.889-0.369-26.46-4.040c-8.571-3.671-15.677-9.436-21.309-17.275s-6.492-16.415-2.57-25.723c3.43-9.8 7.347-20.823 11.756-33.070 4.408-12.252 9.068-24.745 13.962-37.484 4.9-12.739 9.549-25.231 13.962-37.484 4.413-12.247 8.325-22.784 11.761-31.601 7.347-18.616 18.499-32.584 33.439-41.892 14.95-9.313 30.623-14.213 47.037-14.7 16.41-0.492 32.092 3.19 47.037 11.023 14.945 7.839 25.846 19.599 32.701 35.277 5.391 12.739 10.906 26.086 16.532 40.054 5.637 13.957 11.028 27.561 16.174 40.786 5.14 13.23 9.923 25.969 14.326 38.216 4.413 12.268 8.090 22.799 11.028 31.616v0 0zM747.996 309.832v0z" />
<glyph unicode="&#xe905;" glyph-name="kaquan" horiz-adv-x="901" d="M824.709 522.496c22.395 7.465 37.437 28.344 37.437 51.958v81.618c0 22.579-8.786 43.74-24.745 59.581-15.933 15.985-37.13 24.791-59.689 24.791l-654.3 0.195c-46.561 0-84.439-37.878-84.439-84.439v-81.874c0-14.525 5.678-28.237 15.98-38.605 5.893-5.893 12.974-10.348 21.007-13.22 12.14-4.029 22.39-10.225 30.444-18.417 30.828-30.817 30.833-81.024 0.015-111.892-8.033-8.105-18.273-14.326-30.433-18.493-22.103-7.485-36.951-28.314-36.951-51.835v-82.007c0-22.523 8.786-43.679 24.75-59.576 15.923-15.99 37.125-24.796 59.689-24.796l654.239-0.123c46.556 0 84.434 37.878 84.434 84.429l-0.061 81.828c0.051 14.531-5.627 28.237-15.985 38.589-6.108 6.098-13.302 10.573-21.376 13.286-12.365 4.076-22.81 10.312-31.032 18.545-30.792 30.853-30.792 81.060 0 111.913 8.325 8.33 18.765 14.572 31.017 18.545zM331.587 562.125h237.891c6.682 0 12.964-2.606 17.674-7.347 4.705-4.726 7.281-10.988 7.255-17.628 0.026-6.646-2.54-12.892-7.224-17.597-4.71-4.741-11.003-7.352-17.705-7.352l-237.891 0.067c-13.747 0-24.934 11.187-24.934 24.929s11.187 24.929 24.934 24.929zM569.544 333.742l-237.891 0.067c-13.747 0-24.929 11.213-24.929 24.996s11.187 24.996 24.929 24.996l237.891-0.128c13.783 0 24.996-11.187 24.996-24.929 0-13.783-11.218-25.001-24.996-25.001z" />
<glyph unicode="&#xe906;" glyph-name="kecheng" horiz-adv-x="901" d="M637.327 445.614c0-14.034-11.377-25.411-25.411-25.411s-25.411 11.377-25.411 25.411c0 14.034 11.377 25.411 25.411 25.411s25.411-11.377 25.411-25.411zM568.233 378.87c-17.536 0-31.749 17.577-31.749 39.26v54.968c0 21.683 14.213 39.26 31.749 39.26h281.252v183.214c0 31.616-25.631 57.242-57.242 57.242h-660.193c-31.616 0-57.242-25.631-57.242-57.242v-499.917c0-31.616 25.631-57.242 57.242-57.242h660.193c31.616 0 57.242 25.631 57.242 57.242v183.214h-281.252z" />
<glyph unicode="&#xe907;" glyph-name="neirong" horiz-adv-x="901" d="M669.496 360.32c-41.016 0.466-80.497-15.59-109.542-44.559s-45.21-68.403-44.856-109.425c-0.384-41.037 15.77-80.502 44.82-109.486 29.051-28.989 68.547-45.061 109.578-44.595 41.021-0.456 80.497 15.626 109.527 44.616s45.164 68.444 44.764 109.466c0.384 41.011-15.759 80.445-44.785 109.414-29.030 28.974-68.5 45.036-109.507 44.57v0zM765.153 209.495l-33.92-30.868 3.103-43.121c0-6.154 0-9.257-6.257-15.355-2.995 0-2.995-3.103-9.149-3.103 0 0-3.103 0-6.154 3.103l-40.177 21.509-40.177-21.509c-6.154-3.103-15.406 0-18.514 3.052-3.85 4.219-6.036 9.697-6.154 15.406l9.257 46.223-34.074 30.868c-6.047 3.103-9.149 9.257-6.047 15.406 3.154 6.103 9.308 12.252 15.514 12.252l43.121 6.154 21.668 40.074c6.154 12.252 24.663 12.252 30.817 0l21.56-40.074 43.228-6.154c6.154-3.154 9.359-6.154 15.406-12.252 0-6.257 0-15.514-3.052-21.612v0zM674.867 398.638c44.805-2.063 71.916-12.339 108.022-36.808l0.712 276.931c0 14.812-8.929 38.605-20.797 50.524l-131.077 133.668c-13.793 12.841-31.785 20.234-50.627 20.797h-444.273c-32.722 0-59.505-26.737-59.505-59.402v-647.788c0-32.671 26.783-59.351 59.505-59.351h386.504c-36.475 43.607-48.517 84.782-47.647 133.878 1.777 100.301 87.997 189.722 197.484 187.515l1.7 0.036zM190.5 698.163h265.508c5.565 0.159 10.952-1.981 14.894-5.914s6.098-9.313 5.955-14.879c0-11.822-8.929-20.797-20.849-20.797h-265.508c-5.565-0.138-10.952 2.002-14.899 5.929s-6.113 9.298-6.001 14.868c-0.143 5.576 2.017 10.962 5.975 14.899 3.948 3.932 9.349 6.062 14.925 5.893v0zM190.5 579.261h485.862c11.771 0 20.797-8.878 20.797-20.746 0-11.822-9.027-20.797-20.797-20.797h-485.862c-5.565-0.138-10.952 2.002-14.899 5.929s-6.113 9.298-6.001 14.868c-0.128 5.565 2.038 10.947 5.99 14.868 3.948 3.922 9.344 6.047 14.909 5.878v0zM169.6 439.66c0 11.919 8.929 20.7 20.9 20.7h354.785c11.971 0 20.9-8.776 20.9-20.7 0-11.817-8.929-20.797-20.9-20.797h-354.785c-5.565-0.143-10.952 2.002-14.899 5.929-3.948 3.932-6.118 9.303-6.001 14.868v0z" />
<glyph unicode="&#xe908;" glyph-name="qita" horiz-adv-x="901" d="M793.349 502.871c0-11.423-9.262-20.685-20.685-20.685h-272.333c-11.428 0-20.685 9.262-20.685 20.685v272.338c0 11.423 9.257 20.68 20.685 20.68h272.333c11.423 0 20.685-9.262 20.685-20.68v-272.338zM793.349 502.871v0zM793.349 116.49c0-11.428-9.262-20.69-20.685-20.69h-272.333c-11.428 0-20.685 9.262-20.685 20.69v272.333c0 11.423 9.257 20.685 20.685 20.685h272.333c11.423 0 20.685-9.257 20.685-20.685v-272.333zM793.349 116.49v0zM425.784 116.49c0-11.428-9.262-20.69-20.685-20.69h-272.338c-11.423 0-20.685 9.262-20.685 20.69v272.333c0 11.423 9.262 20.685 20.685 20.685h272.338c11.423 0 20.685-9.257 20.685-20.685v-272.333zM425.784 116.49v0zM107.771 639.043c0-21.094 4.193-42.184 12.268-61.676s20.019-37.366 34.934-52.285c14.92-14.92 32.799-26.865 52.291-34.939 19.487-8.069 40.576-12.268 61.67-12.268 21.1 0 42.184 4.198 61.676 12.268 19.492 8.074 37.366 20.019 52.285 34.939 14.92 14.915 26.865 32.794 34.939 52.285s12.268 40.581 12.268 61.676c0 21.089-4.193 42.184-12.268 61.67-8.074 19.492-20.019 37.366-34.939 52.291-14.915 14.915-32.794 26.86-52.285 34.934s-40.576 12.268-61.676 12.268c-21.094 0-42.184-4.193-61.67-12.268-19.492-8.074-37.366-20.014-52.291-34.934-14.915-14.92-26.86-32.799-34.934-52.291-8.074-19.487-12.268-40.581-12.268-61.67v0zM107.771 639.043v0z" />
<glyph unicode="&#xe909;" glyph-name="shangdian" horiz-adv-x="901" d="M789.612 667.704h-678.113l-61.64-151.142c0-56.76 44.846-102.764 100.173-102.764 55.332 0 100.173 46.003 100.173 102.764 0-56.76 44.846-102.764 100.178-102.764 55.322 0 100.178 46.003 100.178 102.764 0-56.76 44.846-102.764 100.173-102.764 55.322 0 100.178 46.003 100.178 102.764 0-56.76 44.841-102.764 100.173-102.764s100.178 46.003 100.178 102.764l-61.65 151.142zM179.313 734.044h542.484c20.429 0 36.992 13.885 36.992 31.032s-16.558 31.053-36.992 31.053h-542.484c-20.424 0-36.987-13.906-36.987-31.053s16.568-31.032 36.987-31.032v0zM650.911 373.494c-27.177-26.153-62.566-40.494-100.173-40.494-37.617 0-73.001 14.346-100.178 40.499-27.177-26.153-62.566-40.499-100.178-40.499s-72.996 14.346-100.173 40.494c-27.172-26.148-62.561-40.494-100.173-40.494-2.58 0-5.146 0.072-7.706 0.205v-171.259c0-37.765 33.193-62.075 61.64-62.075h493.174c37.115 0 61.65 28.175 61.65 62.075v171.259c-2.56-0.133-5.125-0.205-7.706-0.205-37.617 0-73.001 14.341-100.178 40.494v0z" />
<glyph unicode="&#xe90a;" glyph-name="shangping" horiz-adv-x="901" d="M359.076 659.845c0 50.632 40.97 91.638 91.489 91.638 24.294 0.020 47.601-9.631 64.768-26.829 17.167-17.193 26.783-40.515 26.721-64.809v-66.191h73.19v66.191c0 91.269-73.738 164.828-164.68 164.828-90.977 0-164.68-73.795-164.68-164.828v-66.191h73.19v66.191zM833.029 72.253l-50.248 485.796c-1.203 27.617-9.82 35.415-20.163 35.604h-147.369v-90.563h-73.196v90.563h-182.979v-90.563h-73.19v90.563h-147.369c-10.327-0.225-18.918-8.008-20.163-18.263l-50.263-485.796c-0.579-4.685 0.901-9.385 4.065-12.892s7.685-5.463 12.406-5.371h732.027c4.721-0.102 9.247 1.859 12.406 5.366 3.149 3.507 4.628 8.212 4.035-4.444z" />
<glyph unicode="&#xe90b;" glyph-name="shezhi" horiz-adv-x="901" d="M859.167 474.563c-0.891 10.204-9.513 21.35-19.164 24.786l-76.841 27.346c-9.646 3.436-20.291 14.157-23.649 23.828l-12.15 29.425c-4.434 9.231-4.46 24.351-0.067 33.597l34.908 73.426c4.393 9.252 2.401 23.055-4.434 30.679l-37.555 37.555c-7.624 6.835-21.432 8.827-30.679 4.429l-73.431-34.903c-9.247-4.398-24.366-4.367-33.597 0.067l-29.43 12.134c-9.672 3.369-20.393 14.019-23.828 23.665l-27.351 76.841c-3.43 9.646-14.587 18.273-24.786 19.169 0 0-11.305 0.988-26.563 0.988-15.252 0-26.557-0.988-26.557-0.988-10.199-0.896-21.361-9.518-24.791-19.169l-27.336-76.831c-3.441-9.646-14.157-20.301-23.823-23.67l-29.384-12.129c-9.231-4.434-24.351-4.465-33.597-0.072l-73.482 34.913c-9.247 4.393-23.050 2.401-30.679-4.439l-37.56-37.555c-6.835-7.624-8.827-21.432-4.429-30.674l34.903-73.431c4.398-9.247 4.367-24.366-0.067-33.597l-12.134-29.43c-3.369-9.672-14.013-20.393-23.665-23.828l-76.846-27.346c-9.646-3.436-18.268-14.592-19.159-24.791 0.010 0-0.983-11.3-0.983-26.557s0.993-26.563 0.993-26.563c0.891-10.199 9.513-21.356 19.164-24.786l76.892-27.351c9.646-3.436 20.291-14.152 23.649-23.828l12.145-29.42c4.434-9.231 4.46-24.351 0.067-33.597l-34.908-73.431c-4.393-9.247-2.401-23.055 4.424-30.684l37.565-37.545c7.619-6.84 21.427-8.827 30.679-4.434l73.426 34.903c9.247 4.403 24.366 4.367 33.603-0.061l29.425-12.134c9.667-3.364 20.393-14.019 23.823-23.66l27.356-76.892c3.436-9.651 14.592-18.258 24.791-19.139 0 0 11.249-0.963 26.501-0.963 15.258 0 26.563 0.993 26.563 0.993 10.199 0.891 21.35 9.513 24.786 19.164l27.356 76.892c3.436 9.646 14.152 20.291 23.828 23.649l29.425 12.145c9.231 4.434 24.351 4.465 33.597 0.067l73.431-34.903c9.247-4.398 23.055-2.406 30.689 4.429l37.545 37.56c6.835 7.624 8.832 21.432 4.434 30.679l-34.903 73.426c-4.398 9.247-4.367 24.371 0.061 33.597l12.14 29.43c3.369 9.677 14.013 20.393 23.66 23.828l76.892 27.351c9.646 3.43 18.253 14.587 19.133 24.796 0 0 0.963 11.244 0.963 26.501 0 15.237-0.988 26.542-0.988 26.542v0zM450.555 261.816c-102.815 0-186.184 83.364-186.184 186.184 0 102.815 83.364 186.179 186.184 186.179s186.184-83.364 186.184-186.179c0-102.82-83.359-186.184-186.184-186.184v0zM450.555 261.816v0zM366.776 448c0-21.939 9.032-43.73 24.54-59.244 15.508-15.508 37.309-24.54 59.244-24.54s43.735 9.032 59.244 24.54c15.508 15.514 24.54 37.304 24.54 59.244 0 21.934-9.032 43.735-24.54 59.244-15.514 15.508-37.309 24.54-59.244 24.54-21.929 0-43.73-9.032-59.244-24.54-15.508-15.508-24.54-37.309-24.54-59.244v0zM366.776 448v0z" />
<glyph unicode="&#xe90c;" glyph-name="shoupiao" horiz-adv-x="901" d="M809.252 493.901c9.759 4.255 16.067 13.891 16.072 24.535v170.542c0 49.295-40.294 89.446-89.815 89.446h-569.892c-49.521 0-89.815-40.095-89.815-89.405v-170.583c-0.005-10.644 6.303-20.285 16.061-24.54 18.36-7.869 30.264-25.928 30.264-45.901s-11.904-38.031-30.264-45.901c-9.754-4.255-16.061-13.891-16.061-24.535v-170.557c0-49.27 40.294-89.426 89.815-89.426h569.887c49.521 0 89.815 40.156 89.815 89.457v170.527c0 10.65-6.308 20.285-16.072 24.545-18.36 7.869-30.264 25.923-30.264 45.901 0.005 19.973 11.909 38.021 30.269 45.896zM571.213 406.175c14.781 0 26.767-11.986 26.767-26.767s-11.986-26.767-26.767-26.767h-93.885v-74.532c0-14.781-11.986-26.767-26.767-26.767s-26.767 11.986-26.767 26.767v74.532h-93.409c-14.781 0-26.767 11.986-26.767 26.767s11.986 26.767 26.767 26.767h93.404v53.535h-93.404c-14.781 0-26.767 11.986-26.767 26.767s11.986 26.767 26.767 26.767h82.529l-88.064 88.264c-10.486 10.45-10.516 27.418-0.072 37.908 10.45 10.486 27.418 10.522 37.908 0.072l88.11-88.12 88.12 88.095c10.481 10.45 27.448 10.424 37.893-0.061 10.45-10.481 10.424-27.448-0.056-37.893l-88.12-88.259h82.58c14.781 0 26.767-11.986 26.767-26.767s-11.986-26.767-26.767-26.767h-93.885v-53.535h93.885z" />
<glyph unicode="&#xe90d;" glyph-name="shouye" horiz-adv-x="901" d="M646.441 64h-138.056v147.359c0 10.803-8.704 19.507-19.507 19.507h-69.924c-10.803 0-19.507-8.852-19.507-19.507v-147.359h-149.161c-41.114 0-74.578 33.464-74.578 74.578v243.395l-84.183 26.26-6.753 6.753c-19.958 19.958-19.958 52.219 0 72.177l329.83 329.83c9.6 9.605 22.359 15.007 36.014 15.007s26.409-5.253 36.014-15.007l329.83-329.979c9.605-9.605 15.007-22.508 14.858-36.014 0-13.655-5.402-26.409-15.007-36.014l-6.753-6.753-88.837-26.409v-243.246c0.148-41.114-33.162-74.578-74.281-74.578v0z" />
<glyph unicode="&#xe90e;" glyph-name="shouyin" horiz-adv-x="901" d="M796.303 690.253h-143.227v64.276c0.056 11.812-4.608 23.158-12.959 31.514-8.346 8.356-19.686 13.036-31.498 12.989-11.812 0.041-23.153-4.634-31.498-12.989s-13.015-19.702-12.959-31.514v-64.282h-44.457v108.8c0.046 11.807-4.623 23.142-12.969 31.493s-19.681 13.020-31.488 12.979c-11.812 0.041-23.153-4.634-31.498-12.989s-13.010-19.702-12.959-31.514v-108.754h-44.442v64.266c0.056 11.812-4.608 23.158-12.959 31.514-8.346 8.356-19.686 13.036-31.498 12.989-11.812 0.041-23.153-4.634-31.498-12.989s-13.015-19.702-12.959-31.514v-64.282h-44.457v19.779c0.056 11.807-4.608 23.153-12.954 31.508s-19.681 13.036-31.488 13c-11.812 0.041-23.153-4.634-31.498-12.989s-13.010-19.702-12.959-31.514v-19.779h-69.135c-24.699 0-39.521-19.779-39.521-39.552v-400.461c0-19.779 19.758-39.552 39.521-39.552h118.528c24.699-88.991 123.484-158.208 242.028-158.208 113.592 0 217.318 69.217 242.012 158.208h108.672c24.678 0 39.506 19.779 39.506 39.552v400.476c-9.871 24.714-29.635 39.552-49.393 39.552v-0.015h0.005zM751.846 289.792h-59.264v24.73c0.051 11.807-4.618 23.148-12.964 31.503s-19.686 13.030-31.493 12.984c-11.812 0.041-23.153-4.634-31.498-12.989s-13.010-19.702-12.959-31.514v-24.714h-479.094v321.367h627.287v-321.367h-0.015zM406.113 438.113v-14.838h-59.269c-9.887 0-19.779 0-24.694-4.936-4.951-4.951-9.887-9.887-9.887-19.779 0-9.887 0-14.838 4.936-19.779 4.951-4.951 14.822-4.951 24.694-4.951h59.279v-54.374c0-4.951 0-9.887 9.871-14.838 4.936-4.936 14.822-4.936 24.694-4.936s19.763 0 24.694 4.951c4.936 4.936 9.871 9.871 9.871 14.822v54.39h69.151c4.936 0 14.822 0 14.822 4.936 4.936 4.951 4.936 9.887 4.936 19.779 0 14.838-9.871 24.73-24.694 24.73h-69.125v14.822l83.963 118.656c4.936 9.887 9.871 14.838 9.871 19.779 0 4.951-4.936 9.887-14.822 14.838-9.871 4.936-19.743 4.936-24.678 4.936-9.887 0-14.822-4.951-19.779-14.838l-69.14-98.883-74.086 98.883c-4.936 4.951-9.871 9.887-19.763 9.887-9.871 0-14.807 0-24.678-4.936-4.951-4.951-9.887-9.887-9.887-14.838 0-4.936 0-9.887 4.936-14.822l98.785-118.661z" />
<glyph unicode="&#xe90f;" glyph-name="wenjian" horiz-adv-x="901" d="M771.021 677.627h-334.474c-13.655 0-35.697 9.129-45.353 18.785l-49.736 49.736c-19.169 19.174-54.072 33.628-81.183 33.628h-130.176c-34.401 0-62.392-27.991-62.392-62.392v-538.772c0-34.401 27.986-62.392 62.392-62.392h640.922c34.406 0 62.392 27.991 62.392 62.392v436.628c0 34.401-27.991 62.387-62.392 62.387zM552.709 371.594h-76.815v-76.815c0-13.988-11.341-25.334-25.334-25.334s-25.334 11.341-25.334 25.334v76.815h-76.815c-13.988 0-25.334 11.341-25.334 25.334 0 13.988 11.341 25.334 25.334 25.334h76.82v76.81c0 13.993 11.341 25.334 25.334 25.334 13.988 0 25.334-11.341 25.334-25.334v-76.815h76.815c13.993 0 25.334-11.341 25.334-25.334-0.005-13.988-11.346-25.329-25.339-25.329z" />
<glyph unicode="&#xe910;" glyph-name="xianchang" horiz-adv-x="901" d="M446.5 310.108c-178.145 0-322.56-46.659-322.56-104.212s144.415-104.212 322.56-104.212c178.145 0 322.56 46.659 322.56 104.212s-144.415 104.212-322.56 104.212zM446.5 183.296c-65.777 0-119.101 17.229-119.101 38.477 0 21.253 53.325 38.477 119.101 38.477s119.101-17.229 119.101-38.477c-0.005-21.248-53.325-38.477-119.101-38.477zM645.007 794.839c-53.028 52.859-123.52 81.976-198.508 81.976s-145.485-29.112-198.508-81.971c-53.053-52.89-82.273-123.223-82.273-198.042 0-44.134 10.573-88.11 30.572-127.171 18.908-36.925 46.31-69.729 79.365-95.032l170.844-177.142 170.844 177.142c33.055 25.298 60.462 58.102 79.37 95.032 19.994 39.060 30.566 83.036 30.566 127.171 0 74.813-29.22 145.147-82.273 198.036zM446.5 493.752c-61.681 0-111.862 50.084-111.862 111.647 0 61.537 50.181 111.601 111.862 111.601s111.862-50.063 111.862-111.601c0-61.563-50.181-111.647-111.862-111.647z" />
<glyph unicode="&#xe911;" glyph-name="xiaoxi" horiz-adv-x="901" d="M493.251 115.436c0-82.386-63.186-39.854-63.186-39.854l-273.633 230.216h-42.26c-26.179 0-47.391 21.596-47.391 48.246v192.947c0 26.65 21.207 48.241 47.391 48.241h50.55l265.339 225.096c0 0 63.191 42.88 63.191-40.192v-664.699zM635.397 321.889c78.986 64.312 73.713 186.25 0 241.183-28.943 17.413-47.375-40.202-47.375-40.202s73.708-92.457 0-160.788c-14.484-18.76 13.158-57.62 47.375-40.192v0zM674.893 699.735c-10.527 9.39-61.855-25.457-31.585-56.269 156.631-132.659 159.258-257.27 0-393.938-23.706-22.779 7.885-65.669 31.585-56.274 217.17 100.5 207.969 412.692 0 506.481v0zM674.893 699.735v0z" />
<glyph unicode="&#xe912;" glyph-name="yijian" horiz-adv-x="901" d="M771.354 768.794c-19.528 19.533-45.128 29.297-70.728 29.297h-500.132c-25.6 0-51.195-9.764-70.728-29.297s-29.297-45.128-29.297-70.728v-500.137c0-25.6 9.764-51.195 29.297-70.728s45.128-29.297 70.728-29.297h500.137c25.6 0 51.195 9.764 70.728 29.297s29.297 45.128 29.297 70.728v500.137c-0.005 25.6-9.769 51.2-29.302 70.728v0zM574.505 659.538l87.557-87.557-39.060-39.060-87.557 87.557 39.060 39.060zM239.037 236.483l4.838 92.426 87.588-87.588-92.426-4.838zM273.132 358.17l233.242 233.242 87.557-87.552-233.242-233.242-87.557 87.552zM664.463 236.483h-272.23l46.408 38.897h225.823v-38.897z" />
<glyph unicode="&#xe913;" glyph-name="yuangong" horiz-adv-x="901" d="M800.338 744.689h-672.010c-40.392 0-73.308-39.25-73.308-87.532v-439.332c0-48.282 32.916-87.532 73.308-87.532h672.010c40.392 0 76.426 39.25 76.426 87.532v439.327c0 48.287-36.035 87.537-76.426 87.537zM470.108 441.329c0 10.092 9.313 18.345 20.695 18.345h178.816c11.382 0 20.695-8.253 20.695-18.345v-6.876c0-10.086-9.313-18.345-20.695-18.345h-178.816c-11.382 0-20.695 8.259-20.695 18.345v6.876zM748.334 322.985c0-10.086-9.313-18.345-20.695-18.345h-223.058c6.175-15.892 10.138-32.891 11.5-50.616 0.036-0.481 0.067-0.963 0.097-1.444-0.128-3.86-3.287-6.953-7.178-6.953h-340.838c-3.891 0-7.055 3.092-7.178 6.953 0.031 0.481 0.061 0.963 0.097 1.439 5.437 70.835 52.342 130.028 116.465 153.441-34.847 20.849-58.189 58.941-58.189 102.508 0 65.93 53.448 119.378 119.378 119.378s119.373-53.448 119.373-119.378c0-43.612-23.398-81.746-58.312-102.574 32.906-12.052 61.21-33.587 81.741-61.23 2.801 1.26 5.919 2.043 9.262 2.043h236.831c11.382 0 20.695-8.253 20.695-18.345v-6.876zM813.85 545.111c0-10.092-9.313-18.345-20.695-18.345h-302.351c-11.382 0-20.695 8.253-20.695 18.345v6.876c0 10.092 9.313 18.345 20.695 18.345h302.351c11.382 0 20.695-8.253 20.695-18.345v-6.876z" />
<glyph unicode="&#xe914;" glyph-name="qingjia" horiz-adv-x="901" d="M383.585 567.398v173.414c0 15.764-11.034 29.952-26.803 33.106-20.495 3.154-36.26-12.611-36.26-31.529v-127.698c0-9.457-6.308-15.764-15.764-15.764h-77.245c-15.764 0-29.952-11.034-33.106-26.798-3.154-20.495 12.611-37.837 31.529-37.837h126.121c17.341 1.577 31.529 15.764 31.529 33.106v0zM296.371 312.294c-133.827 23.112-232.212 143.688-223.222 287.084 8.899 130.785 113.777 237.179 243.144 248.791 134.098 11.571 251.643-77.624 283.796-200.842 3.041-14.213 15.58-23.772 29.768-23.88 20.495-0.159 36.419 20.214 30.269 40.755-38.287 145.336-171.453 253.573-329.144 248.489-160.85-5.059-308.567-147.379-320.865-309.668-12.406-176.476 110.976-327.204 276.306-353.71 18.893-3.297 36.357 12.329 36.506 31.247 0.123 15.764-10.819 28.462-26.557 31.734v0zM714.65 308.854c31.529 26.798 52.024 66.212 52.024 110.356 0 78.822-63.058 143.462-141.885 143.462s-141.885-64.635-141.885-143.462c0-44.145 20.495-85.13 52.024-111.933-97.741-31.529-178.145-113.505-178.145-209.674 0-34.683 28.375-67.789 63.058-67.789h409.887c34.683 0 63.058 33.106 63.058 67.789 0.010 97.741-80.394 179.717-178.135 211.251v0z" />
</font>
</defs>
</svg>
